DBRep_DrawableShape

CASCADE Topology V1, (c) Matra-Datavision
Locations 2
1
              1               0               0               0 
              0               1               0               0 
              0               0               1              70 
2  1 -1 0
Curve2ds 128
1 0 0 0 1 
1 0 -2.4999999999999996 1 0 
1 0 0 0 1 
1 0 -67.5 1 0 
1 0 0 0 1 
1 6.1290619179131944 0 0 -1 
1 0 0 0 1 
1 7.5 -2.4999999999999996 -1 0 
1 0 0 0 1 
1 7.5 -67.5 -1 0 
1 0 0 0 1 
1 6.1290619179131944 0 0 -1 
8 0 1.5707963267948966
1 0 7.5 1 0 
8 0 1.5707963267948966
1 0 0 1 0 
1 1.5707963267948966 0 0 1 
1 -22.500000000000004 3.1525759168370459e-016 0 -1 
8 4.7123889803846897 6.2831853071795862
1 6.2831853071795862 6.1290619179131944 -1 -0 
8 4.7123889803846897 6.2831853071795862
1 0 -6.2831853071795862 0 1 
8 0 1.5707963267948966
1 0 7.5 1 0 
8 0 1.5707963267948966
1 0 0 1 0 
1 1.5707963267948966 0 0 1 
1 -22.500000000000004 3.1525759168370459e-016 0 -1 
8 4.7123889803846897 6.2831853071795862
1 6.2831853071795862 6.1290619179131944 -1 -0 
8 4.7123889803846897 6.2831853071795862
1 0 -6.2831853071795862 0 1 
1 0 2.5 1 0 
1 0 0 1 0 
1 0 67.5 1 0 
1 0 0 1 0 
1 1.0189365320945141 0 0 1 
1 0.031053794255352797 0 -0 -1 
8 4.7123889803846897 6.2831853071795862
1 6.2831853071795862 1.3709380820868056 -1 -0 
8 4.7123889803846897 6.2831853071795862
1 1.0189365320945145 -6.2831853071795862 0 1 
1 1.5707963267948966 0 0 1 
1 -22.500000000000004 7.5 0 -1 
8 4.7123889803846897 6.2831853071795862
1 6.2831853071795862 1.3709380820868056 -1 -0 
8 4.7123889803846897 6.2831853071795862
1 1.0189365320945145 -6.2831853071795862 0 1 
1 1.5707963267948966 0 0 1 
1 -22.500000000000004 7.5 0 -1 
1 1.0189365320945141 2.5 -1 -0 
1 0 0 1 0 
1 1.0189365320945141 67.5 -1 -0 
1 0 0 1 0 
1 1.0189365320945141 0 0 1 
1 0.031053794255352797 0 -0 -1 
1 0 1.5707963267948966 1 0 
2 -1.2135388581912388e-015 -30.416666666666668 -0.55045871559633031 0.8348623853211008 0.83486238532110091 0.55045871559633042 42.916666666666664
1 1.5707963267948966 0 0 1 
1 22.499999999999996 3.1525759168370459e-016 0 1 
1 0 1.5707963267948966 1 0 
2 -1.2135388581912388e-015 30.416666666666668 -0.55045871559633031 -0.8348623853211008 0.83486238532110091 -0.55045871559633042 42.916666666666664
1 1.5707963267948966 0 0 1 
1 22.499999999999996 -7.5 0 1 
1 0 -1.5707963267948966 1 0 
8 4.7123889803846897 6.2831853071795862
1 0.03105379425535304 6.2831853071795862 -0 -1 
8 4.7123889803846897 6.2831853071795862
1 1.0189365320945138 -6.2831853071795862 0 1 
1 0 1.5707963267948966 1 0 
2 -1.2135388581912388e-015 -30.416666666666668 -0.55045871559633031 0.8348623853211008 0.83486238532110091 0.55045871559633042 42.916666666666664
1 1.5707963267948966 0 0 1 
1 22.499999999999996 3.1525759168370459e-016 0 1 
1 0 1.5707963267948966 1 0 
2 -1.2135388581912388e-015 30.416666666666668 -0.55045871559633031 -0.8348623853211008 0.83486238532110091 -0.55045871559633042 42.916666666666664
1 1.5707963267948966 0 0 1 
1 22.499999999999996 -7.5 0 1 
1 0 -1.5707963267948966 1 0 
8 4.7123889803846897 6.2831853071795862
1 0.03105379425535304 6.2831853071795862 -0 -1 
8 4.7123889803846897 6.2831853071795862
1 1.0189365320945138 -6.2831853071795862 0 1 
1 0 0 1 0 
1 0 -2.5 1 0 
1 0 0 1 0 
1 0 -67.5 1 0 
1 0 0 0 1 
1 1.1347733836561154 0 -0 -1 
8 4.7123889803846897 6.2831853071795862
1 0.03105379425535304 6.2831853071795862 -0 -1 
8 4.7123889803846897 6.2831853071795862
1 0 -6.2831853071795862 0 1 
1 0 -1.5707963267948966 1 0 
8 4.7123889803846897 6.2831853071795862
1 0.03105379425535304 6.2831853071795862 -0 -1 
8 4.7123889803846897 6.2831853071795862
1 0 -6.2831853071795862 0 1 
1 0 -1.5707963267948966 1 0 
1 0 0 1 0 
1 0 -2.5 1 0 
1 0 0 1 0 
1 0 -67.5 1 0 
1 0 0 0 1 
1 1.1347733836561154 0 -0 -1 
8 4.7123889803846897 6.2831853071795862
1 1.1347733836561158 6.2831853071795862 -0 -1 
8 4.7123889803846897 6.2831853071795862
1 0 -6.2831853071795862 0 1 
8 0 1.5707963267948966
1 0 7.5 1 0 
8 0 1.5707963267948966
1 0 0 1 0 
1 0 0 0 1 
1 7.5 -2.4999999999999996 -1 0 
8 4.7123889803846897 6.2831853071795862
1 6.2831853071795862 6.1290619179131944 -1 -0 
8 4.7123889803846897 6.2831853071795862
1 1.0189365320945161 -6.2831853071795862 0 1 
8 4.7123889803846897 6.2831853071795862
1 1.1347733836561156 6.2831853071795862 -0 -1 
8 4.7123889803846897 6.2831853071795862
1 0 -6.2831853071795862 0 1 
8 4.7123889803846897 6.2831853071795862
1 6.2831853071795862 1.3709380820868056 -1 -0 
8 4.7123889803846897 6.2831853071795862
1 1.0189365320945161 -6.2831853071795862 0 1 
1 0 0 0 1 
1 0 -2.4999999999999996 1 0 
8 4.7123889803846897 6.2831853071795862
1 1.1347733836561158 6.2831853071795862 -0 -1 
8 4.7123889803846897 6.2831853071795862
1 0 -6.2831853071795862 0 1 
8 0 1.5707963267948966
1 0 7.5 1 0 
8 0 1.5707963267948966
1 0 0 1 0 
1 0 0 0 1 
1 7.5 -67.5 -1 0 
8 4.7123889803846897 6.2831853071795862
1 6.2831853071795862 6.1290619179131944 -1 -0 
8 4.7123889803846897 6.2831853071795862
1 1.0189365320945161 -6.2831853071795862 0 1 
8 4.7123889803846897 6.2831853071795862
1 1.1347733836561156 6.2831853071795862 -0 -1 
8 4.7123889803846897 6.2831853071795862
1 0 -6.2831853071795862 0 1 
8 4.7123889803846897 6.2831853071795862
1 6.2831853071795862 1.3709380820868056 -1 -0 
8 4.7123889803846897 6.2831853071795862
1 1.0189365320945161 -6.2831853071795862 0 1 
1 0 0 0 1 
1 0 -67.5 1 0 
1 7.1054273576010023e-016 2.5 1 0 
1 0 0 1 0 
1 7.1054273576010023e-016 67.5 1 0 
1 0 0 1 0 
1 1.0189365320945181 0 0 1 
1 1.3709380820868056 0 0 -1 
1 7.1054273576010023e-016 2.5 1 0 
1 0 0 1 0 
1 7.1054273576010023e-016 67.5 1 0 
1 0 0 1 0 
1 1.0189365320945181 0 0 1 
1 1.3709380820868056 0 0 -1 
1 0 -1.5707963267948966 1 0 
1 0 -1.5707963267948966 1 0 
1 0 -1.5707963267948966 1 0 
1 0 -1.5707963267948966 1 0 
Curves 62
1 -25 0 0 0 0 1 
1 -25 0 2.4999999999999996 0 -1 0 
1 -25 0 67.5 0 -1 0 
1 -25 -6.1290619179131944 0 0 0 1 
1 -25 7.5 2.4999999999999996 -0 -1 -0 
1 -25 7.5 67.5 -0 -1 -0 
1 -25 6.1290619179131944 0 -0 -0 1 
2 -22.5 0 2.4999999999999996 -0 -1 -0 -1 0 0 0 0 -1 2.5
1 -22.5 0 -4.4408920985006262e-016 0 -1 0 
2 -22.5 -6.1290619179131944 2.5 0 1 -0 -1 0 0 0 0 1 2.5
2 -22.5 0 67.5 0 1 0 -1 0 0 0 -0 1 2.5
1 -22.5 0 70 0 -1 0 
2 -22.5 -6.1290619179131944 67.5 0 -1 0 -1 0 0 -0 -0 -1 2.5
2 -22.5 -6.1290619179131944 2.5 0 0 1 -1 0 0 0 -1 0 2.5
2 -22.5 -6.1290619179131944 67.5 0 0 1 -1 0 0 0 -1 0 2.5
1 -23.810679611650489 -8.2579393111896913 0 0 0 1 
2 -22.5 6.1290619179131944 2.5 -7.2164496600635175e-016 1 0 -1 -7.2164496600635175e-016 0 0 0 1 2.5
1 -22.5 7.5 -4.4408920985006262e-016 -0 -1 -0 
2 -22.5 6.1290619179131944 67.5 7.2164496600635175e-016 -1 0 -1 -7.2164496600635175e-016 0 0 -0 -1 2.5
1 -22.5 7.5 70 -0 -1 -0 
2 -22.5 6.1290619179131944 2.5 0 0 1 -0.5242718446601955 0.85155095731059804 0 -0.85155095731059804 -0.5242718446601955 0 2.5
2 -22.5 6.1290619179131944 67.5 0 0 1 -0.5242718446601955 0.85155095731059804 0 -0.85155095731059804 -0.5242718446601955 0 2.5
1 -23.810679611650489 8.2579393111896913 0 -0 -0 1 
2 8.8817841970012523e-016 -30.416666666666668 0 -0 -0 -1 -0.55045871559633031 0.83486238532110102 0 0.83486238532110102 0.55045871559633031 -0 42.916666666666664
1 22.5 0 -4.4408920985006262e-016 -0 1 -0 
2 8.8817841970012523e-016 30.416666666666668 0 0 0 1 -0.55045871559633031 -0.83486238532110102 0 0.83486238532110102 -0.55045871559633031 0 42.916666666666664
1 22.5 -7.5 -4.4408920985006262e-016 0 1 0 
2 -22.5 -6.1290619179131944 2.5 -0.85155095731059804 0.52427184466019539 0 -0.52427184466019539 -0.85155095731059804 0 0 0 1 2.5
2 8.8817841970012523e-016 -30.416666666666668 70 -0 -0 -1 -0.55045871559633031 0.83486238532110102 0 0.83486238532110102 0.55045871559633031 -0 42.916666666666664
1 22.5 0 70 -0 1 -0 
2 8.8817841970012523e-016 30.416666666666668 70 0 0 1 -0.55045871559633031 -0.83486238532110102 0 0.83486238532110102 -0.55045871559633031 0 42.916666666666664
1 22.5 -7.5 70 0 1 0 
2 -22.5 -6.1290619179131944 67.5 0.85155095731059804 -0.52427184466019539 0 -0.52427184466019539 -0.85155095731059804 0 0 -0 -1 2.5
2 8.8817841970012523e-016 30.416666666666668 2.5 0 0 1 -0.55045871559633031 -0.83486238532110102 0 0.83486238532110102 -0.55045871559633031 0 45.416666666666664
2 8.8817841970012523e-016 30.416666666666668 67.5 0 0 1 -0.55045871559633031 -0.83486238532110102 0 0.83486238532110102 -0.55045871559633031 0 45.416666666666664
1 23.810679611650478 -8.2579393111896913 0 0 0 1 
2 -22.5 6.1290619179131944 2.5 0.85155095731059804 0.5242718446601955 -0 -0.5242718446601955 0.85155095731059804 0 0 0 1 2.5
2 -22.5 6.1290619179131944 67.5 -0.85155095731059804 -0.5242718446601955 0 -0.5242718446601955 0.85155095731059804 0 -0 0 -1 2.5
2 8.8817841970012523e-016 -30.416666666666668 2.5 -0 -0 -1 -0.55045871559633031 0.83486238532110102 0 0.83486238532110102 0.55045871559633031 -0 45.416666666666664
2 8.8817841970012523e-016 -30.416666666666668 67.5 -0 -0 -1 -0.55045871559633031 0.83486238532110102 0 0.83486238532110102 0.55045871559633031 -0 45.416666666666664
1 23.810679611650478 8.2579393111896913 0 -0 -0 1 
2 22.5 6.1290619179131944 2.5 0.85155095731059982 -0.5242718446601925 0 0.5242718446601925 0.85155095731059982 0 -0 0 1 2.5
2 22.5 0 2.4999999999999996 0 1 0 1 0 -0 -0 0 -1 2.5
1 25 0 2.4999999999999996 -0 1 -0 
2 22.5 6.1290619179131944 2.5 1.1657341758564144e-015 -1 0 1 1.1657341758564144e-015 0 -0 0 1 2.5
2 22.5 -6.1290619179131944 2.5 -0.85155095731059982 -0.5242718446601925 0 0.5242718446601925 -0.85155095731059982 0 0 0 1 2.5
2 22.5 -6.1290619179131944 2.5 -1.1657341758564144e-015 -1 0 1 -1.1657341758564144e-015 0 0 0 1 2.5
1 25 -7.5 2.4999999999999996 0 1 0 
2 22.5 6.1290619179131944 67.5 -0.85155095731059982 0.5242718446601925 0 0.5242718446601925 0.85155095731059982 0 0 0 -1 2.5
2 22.5 0 67.5 -0 -1 -0 1 0 -0 0 -0 1 2.5
1 25 0 67.5 -0 1 -0 
2 22.5 6.1290619179131944 67.5 -1.1657341758564144e-015 1 0 1 1.1657341758564144e-015 0 0 0 -1 2.5
2 22.5 -6.1290619179131944 67.5 0.85155095731059982 0.5242718446601925 -0 0.5242718446601925 -0.85155095731059982 0 0 -0 -1 2.5
2 22.5 -6.1290619179131944 67.5 1.1657341758564144e-015 1 -0 1 -1.1657341758564144e-015 0 0 -0 -1 2.5
1 25 -7.5 67.5 0 1 0 
2 22.5 -6.1290619179131944 2.5 0 0 1 0.5242718446601925 -0.85155095731059982 0 0.85155095731059982 0.5242718446601925 -0 2.5
2 22.5 -6.1290619179131944 67.5 0 0 1 0.5242718446601925 -0.85155095731059982 0 0.85155095731059982 0.5242718446601925 -0 2.5
1 25 -6.1290619179131944 0 0 0 1 
2 22.5 6.1290619179131944 2.5 -0 -0 -1 0.5242718446601925 0.85155095731059982 -0 0.85155095731059982 -0.5242718446601925 0 2.5
2 22.5 6.1290619179131944 67.5 -0 -0 -1 0.5242718446601925 0.85155095731059982 -0 0.85155095731059982 -0.5242718446601925 0 2.5
1 25 6.1290619179131944 0 -0 -0 1 
1 25 0 0 0 0 1 
Polygon3D 0
PolygonOnTriangulations 0
Surfaces 31
1 -25 0 0 1 0 -0 0 -1 0 0 -0 -1 
1 -25 0 0 -1 0 0 0 1 0 0 0 -1 
2 -22.5 0 2.4999999999999996 0 -1 0 -1 -0 0 0 -0 -1 2.5
2 -22.5 0 67.5 0 -1 0 -1 -0 0 -0 0 1 2.5
2 -22.5 -6.1290619179131944 0 0 0 1 -1 0 0 0 -1 0 2.5
2 -22.5 7.5 2.4999999999999996 -0 -1 -0 -1 0 0 0 0 -1 2.5
2 -22.5 7.5 67.5 -0 -1 -0 -1 0 0 -0 -0 1 2.5
2 -22.5 6.1290619179131944 0 -0 -0 1 -1 0 0 0 1 0 2.5
1 2.101717277891364e-015 -3.1525759168370459e-016 0 0 0 1 1 0 -0 -0 1 0 
4 -22.5 -6.1290619179131944 2.5 0 0 1 -1 0 0 0 -1 0 2.5
4 -22.5 -6.1290619179131944 67.5 -0 -0 -1 -1 0 0 -0 -1 0 2.5
2 8.8817841970012523e-016 30.416666666666668 0 -0 -0 -1 -0.55045871559633031 -0.83486238532110102 0 0.83486238532110102 -0.55045871559633031 0 45.416666666666664
4 -22.5 6.1290619179131944 2.5 0 0 1 -0.5242718446601955 0.85155095731059804 0 -0.85155095731059804 -0.5242718446601955 0 2.5
4 -22.5 6.1290619179131944 67.5 -0 -0 -1 -0.5242718446601955 0.85155095731059804 0 -0.85155095731059804 -0.5242718446601955 0 2.5
2 8.8817841970012523e-016 -30.416666666666668 0 0 0 -1 -0.55045871559633031 0.83486238532110102 -0 0.83486238532110102 0.55045871559633031 0 45.416666666666664
5 8.8817841970012523e-016 -30.416666666666668 2.5 -0 -0 -1 -0.55045871559633031 0.83486238532110102 0 0.83486238532110102 0.55045871559633031 -0 42.916666666666664 2.5
2 22.5 0 2.4999999999999996 -0 1 -0 1 0 0 0 0 -1 2.5
5 8.8817841970012523e-016 30.416666666666668 2.5 -0 -0 -1 -0.55045871559633031 -0.83486238532110102 0 0.83486238532110102 -0.55045871559633031 -0 42.916666666666664 2.5
2 22.5 -7.5 2.4999999999999996 0 1 0 1 0 -0 -0 0 -1 2.5
5 8.8817841970012523e-016 -30.416666666666668 67.5 0 0 1 -0.55045871559633031 0.83486238532110102 0 0.83486238532110102 0.55045871559633031 -0 42.916666666666664 2.5
2 22.5 0 67.5 -0 1 -0 1 0 0 -0 -0 1 2.5
5 8.8817841970012523e-016 30.416666666666668 67.5 0 0 1 -0.55045871559633031 -0.83486238532110102 0 0.83486238532110102 -0.55045871559633031 0 42.916666666666664 2.5
2 22.5 -7.5 67.5 0 1 0 1 0 -0 0 -0 1 2.5
2 22.5 -6.1290619179131944 0 0 0 1 0.52427184466019217 -0.85155095731060004 0 0.85155095731060004 0.52427184466019217 -0 2.5
2 22.5 6.1290619179131944 0 -0 -0 1 0.52427184466019217 0.85155095731060004 0 0.85155095731060004 -0.52427184466019217 -0 2.5
4 22.5 6.1290619179131944 2.5 0 0 1 0.5242718446601925 0.85155095731059982 -0 0.85155095731059982 -0.5242718446601925 -0 2.5
1 25 7.5 0 1 0 -0 0 -1 0 0 -0 -1 
4 22.5 -6.1290619179131944 2.5 0 0 1 0.5242718446601925 -0.85155095731059982 0 0.85155095731059982 0.5242718446601925 -0 2.5
1 25 -7.5 0 -1 0 0 0 1 0 0 0 -1 
4 22.5 6.1290619179131944 67.5 -0 -0 -1 0.5242718446601925 0.85155095731059982 -0 0.85155095731059982 -0.5242718446601925 0 2.5
4 22.5 -6.1290619179131944 67.5 -0 -0 -1 0.5242718446601925 -0.85155095731059982 0 0.85155095731059982 0.5242718446601925 -0 2.5
Triangulations 0

TShapes 169
Ve
1e-007
-25 0 2.5
0 0

0101101
*
Ve
1e-007
-25 0 67.5
0 0

0101101
*
Ed
 1e-007 1 1 0
1  1 0 2.5 67.5
4 C2 1 0 2 0
0

0101000
+169 0 -168 0 *
Ve
1e-007
-25 -6.12906191791319 2.5
0 0

0101101
*
Ed
 1e-007 1 1 0
1  2 0 0 6.12906191791319
2  1 3 0 0 6.12906191791319
2  2 1 0 0 6.12906191791319
4 G1 3 0 1 0
0

0101000
+169 0 -166 0 *
Ve
1e-007
-25 -6.12906191791319 67.5
0 0

0101101
*
Ed
 1e-007 1 1 0
1  3 0 0 6.12906191791319
2  3 4 0 0 6.12906191791319
2  4 1 0 0 6.12906191791319
4 G1 4 0 1 0
0

0101000
+168 0 -164 0 *
Ed
 1e-007 1 1 0
1  4 0 2.5 67.5
2  5 5 0 2.5 67.5
2  6 1 0 2.5 67.5
4 G1 5 0 1 0
0

0101000
+166 0 -164 0 *
Wi

0101100
+167 0 -165 0 +163 0 -162 0 *
Fa
0  1e-007 1 0

0101000
+161 0 *
Ve
1e-007
-25 6.12906191791319 2.5
0 0

0101101
*
Ed
 1e-007 1 1 0
1  5 0 1.37093808208681 7.5
2  7 6 0 1.37093808208681 7.5
2  8 2 0 1.37093808208681 7.5
4 G1 6 0 2 0
0

0101000
+159 0 -169 0 *
Ve
1e-007
-25 6.12906191791319 67.5
0 0

0101101
*
Ed
 1e-007 1 1 0
1  6 0 1.37093808208681 7.5
2  9 7 0 1.37093808208681 7.5
2  10 2 0 1.37093808208681 7.5
4 G1 7 0 2 0
0

0101000
+157 0 -168 0 *
Ed
 1e-007 1 1 0
1  7 0 2.5 67.5
2  11 8 0 2.5 67.5
2  12 2 0 2.5 67.5
4 G1 8 0 2 0
0

0101000
+159 0 -157 0 *
Wi

0101100
+167 0 +158 0 -156 0 -155 0 *
Fa
0  1e-007 2 0

0101000
+154 0 *
Ve
1e-007
-22.5 0 -4.44089209850063e-016
0 0

0101101
*
Ed
 1e-007 1 1 0
1  8 0 0 1.5707963267949
2  13 6 0 0 1.5707963267949
2  14 3 0 0 1.5707963267949
4 G1 6 0 3 0
0

0101000
+169 0 -152 0 *
Ve
1e-007
-22.5 -6.12906191791319 0
0 0

0101101
*
Ed
 1e-007 1 1 0
1  9 0 0 6.12906191791319
2  15 3 0 0 6.12906191791319
2  16 9 0 0 6.12906191791319
4 G1 3 0 9 0
0

0101000
+152 0 -150 0 *
Ed
 1e-007 1 1 0
1  10 0 4.71238898038469 6.28318530717959
2  17 3 0 4.71238898038469 6.28318530717959
2  18 10 0 4.71238898038469 6.28318530717959
4 G1 10 0 3 0
0

0101000
+150 0 -166 0 *
Wi

0101100
+151 0 -165 0 +149 0 +148 0 *
Fa
0  0 3 0

0101000
+147 0 *
Ve
1e-007
-22.5 0 70
0 0

0101101
*
Ed
 1e-007 1 1 0
1  11 0 0 1.5707963267949
2  19 7 0 0 1.5707963267949
2  20 4 0 0 1.5707963267949
4 G1 7 0 4 0
0

0101000
+168 0 -145 0 *
Ve
1e-007
-22.5 -6.12906191791319 70
0 0

0101101
*
Ed
 1e-007 1 1 0
1  12 0 0 6.12906191791319
2  21 4 0 0 6.12906191791319
2  22 9 1 0 6.12906191791319
4 G1 4 0 9 1
0

0101000
+145 0 -143 0 *
Ed
 1e-007 1 1 0
1  13 0 4.71238898038469 6.28318530717959
2  23 4 0 4.71238898038469 6.28318530717959
2  24 11 0 4.71238898038469 6.28318530717959
4 G1 11 0 4 0
0

0101000
+143 0 -164 0 *
Wi

0101100
+144 0 -163 0 +142 0 +141 0 *
Fa
0  0 4 0

0101000
+140 0 *
Ve
1e-007
-23.8106796116505 -8.25793931118969 2.5
0 0

0101101
*
Ed
 1e-007 1 1 0
1  14 0 0 1.01893653209451
2  25 5 0 0 1.01893653209451
2  26 10 0 0 1.01893653209451
4 G1 10 0 5 0
0

0101000
+166 0 -138 0 *
Ve
1e-007
-23.8106796116505 -8.25793931118969 67.5
0 0

0101101
*
Ed
 1e-007 1 1 0
1  15 0 0 1.01893653209451
2  27 5 0 0 1.01893653209451
2  28 11 0 0 1.01893653209451
4 G1 11 0 5 0
0

0101000
+164 0 -136 0 *
Ed
 1e-007 1 1 0
1  16 0 2.5 67.5
2  29 5 0 2.5 67.5
2  30 12 0 2.5 67.5
4 G1 5 0 12 0
0

0101000
+138 0 -136 0 *
Wi

0101100
-162 0 +137 0 -135 0 +134 0 *
Fa
0  0 5 0

0101000
+133 0 *
Ve
1e-007
-22.5 6.12906191791319 0
0 0

0101101
*
Ed
 1e-007 1 1 0
1  17 0 4.71238898038469 6.28318530717959
2  31 6 0 4.71238898038469 6.28318530717959
2  32 13 0 4.71238898038469 6.28318530717959
4 G1 13 0 6 0
0

0101000
+131 0 -159 0 *
Ed
 1e-007 1 1 0
1  18 0 1.37093808208681 7.5
2  33 6 0 1.37093808208681 7.5
2  34 9 0 1.37093808208681 7.5
4 G1 6 0 9 0
0

0101000
+131 0 -152 0 *
Wi

0101100
-130 0 +129 0 -158 0 -151 0 *
Fa
0  0 6 0

0101000
+128 0 *
Ve
1e-007
-22.5 6.12906191791319 70
0 0

0101101
*
Ed
 1e-007 1 1 0
1  19 0 4.71238898038469 6.28318530717959
2  35 7 0 4.71238898038469 6.28318530717959
2  36 14 0 4.71238898038469 6.28318530717959
4 G1 14 0 7 0
0

0101000
+126 0 -157 0 *
Ed
 1e-007 1 1 0
1  20 0 1.37093808208681 7.5
2  37 7 0 1.37093808208681 7.5
2  38 9 1 1.37093808208681 7.5
4 G1 7 0 9 1
0

0101000
+126 0 -145 0 *
Wi

0101100
-125 0 +124 0 -156 0 -144 0 *
Fa
0  0 7 0

0101000
+123 0 *
Ve
1e-007
-23.8106796116505 8.25793931118969 2.5
0 0

0101101
*
Ed
 1e-007 1 1 0
1  21 0 0 1.01893653209451
2  39 8 0 0 1.01893653209451
2  40 13 0 0 1.01893653209451
4 G1 13 0 8 0
0

0101000
+121 0 -159 0 *
Ve
1e-007
-23.8106796116505 8.25793931118969 67.5
0 0

0101101
*
Ed
 1e-007 1 1 0
1  22 0 0 1.01893653209451
2  41 8 0 0 1.01893653209451
2  42 14 0 0 1.01893653209451
4 G1 14 0 8 0
0

0101000
+119 0 -157 0 *
Ed
 1e-007 1 1 0
1  23 0 2.5 67.5
2  43 8 0 2.5 67.5
2  44 15 0 2.5 67.5
4 G1 8 0 15 0
0

0101000
+121 0 -119 0 *
Wi

0101100
-155 0 -120 0 +118 0 +117 0 *
Fa
0  0 8 0

0101000
+116 0 *
Ve
1e-007
22.5 6.12906191791319 0
0 0

0101101
*
Ed
 1e-007 1 1 0
1  24 0 0.031053794255353 1.13477338365612
2  45 16 0 0.031053794255353 1.13477338365612
2  46 9 0 0.031053794255353 1.13477338365612
4 G1 16 0 9 0
0

0101000
+131 0 -114 0 *
Ve
1e-007
22.5 0 -4.44089209850063e-016
0 0

0101101
*
Ed
 1e-007 1 1 0
1  25 0 -0 6.12906191791319
2  47 17 0 -0 6.12906191791319
2  48 9 0 -0 6.12906191791319
4 G1 17 0 9 0
0

0101000
+112 0 -114 0 *
Ve
1e-007
22.5 -6.12906191791319 0
0 0

0101101
*
Ed
 1e-007 1 1 0
1  26 0 0.031053794255353 1.13477338365612
2  49 18 0 0.031053794255353 1.13477338365612
2  50 9 0 0.031053794255353 1.13477338365612
4 G1 18 0 9 0
0

0101000
+150 0 -110 0 *
Ed
 1e-007 1 1 0
1  27 0 1.37093808208681 7.5
2  51 19 0 1.37093808208681 7.5
2  52 9 0 1.37093808208681 7.5
4 G1 19 0 9 0
0

0101000
+110 0 -112 0 *
Wi

0101100
+129 0 -113 0 +149 0 +111 0 +109 0 +108 0 *
Fa
0  1e-007 9 0

0101000
+107 0 *
Ed
 1e-007 1 1 1
2  53 10 0 0 1.01893653209451
0

0101000
+150 0 -150 0 *
Ed
 1e-007 1 1 0
1  28 0 4.71238898038469 6.28318530717959
2  54 18 0 4.71238898038469 6.28318530717959
2  55 10 0 4.71238898038469 6.28318530717959
4 G1 10 0 18 0
0

0101000
+150 0 -138 0 *
Wi

0101100
-148 0 +105 0 +104 0 -137 0 *
Fa
0  0 10 0

0101000
+103 0 *
Ve
1e-007
22.5 6.12906191791319 70
0 0

0101101
*
Ed
 1e-007 1 1 0
1  29 0 0.031053794255353 1.13477338365612
2  56 20 0 0.031053794255353 1.13477338365612
2  57 9 1 0.031053794255353 1.13477338365612
4 G1 20 0 9 1
0

0101000
+126 0 -101 0 *
Ve
1e-007
22.5 0 70
0 0

0101101
*
Ed
 1e-007 1 1 0
1  30 0 -0 6.12906191791319
2  58 21 0 -0 6.12906191791319
2  59 9 1 -0 6.12906191791319
4 G1 21 0 9 1
0

0101000
+99 0 -101 0 *
Ve
1e-007
22.5 -6.12906191791319 70
0 0

0101101
*
Ed
 1e-007 1 1 0
1  31 0 0.031053794255353 1.13477338365612
2  60 22 0 0.031053794255353 1.13477338365612
2  61 9 1 0.031053794255353 1.13477338365612
4 G1 22 0 9 1
0

0101000
+143 0 -97 0 *
Ed
 1e-007 1 1 0
1  32 0 1.37093808208681 7.5
2  62 23 0 1.37093808208681 7.5
2  63 9 1 1.37093808208681 7.5
4 G1 23 0 9 1
0

0101000
+97 0 -99 0 *
Wi

0101100
+124 0 -100 0 +142 0 +98 0 +96 0 +95 0 *
Fa
0  1e-007 9 0

0101000
+94 2 *
Ed
 1e-007 1 1 1
2  64 11 0 0 1.01893653209451
0

0101000
+143 0 -143 0 *
Ed
 1e-007 1 1 0
1  33 0 4.71238898038469 6.28318530717959
2  65 22 0 4.71238898038469 6.28318530717959
2  66 11 0 4.71238898038469 6.28318530717959
4 G1 11 0 22 0
0

0101000
+143 0 -136 0 *
Wi

0101100
-141 0 +92 0 +91 0 -135 0 *
Fa
0  0 11 0

0101000
+90 0 *
Ve
1e-007
23.8106796116505 -8.25793931118969 2.5
0 0

0101101
*
Ed
 1e-007 1 1 0
1  34 0 0.0310537942553528 1.13477338365612
2  67 18 0 0.0310537942553528 1.13477338365612
2  68 12 0 0.0310537942553528 1.13477338365612
4 G1 18 0 12 0
0

0101000
+138 0 -88 0 *
Ve
1e-007
23.8106796116505 -8.25793931118969 67.5
0 0

0101101
*
Ed
 1e-007 1 1 0
1  35 0 0.0310537942553528 1.13477338365612
2  69 22 0 0.0310537942553528 1.13477338365612
2  70 12 0 0.0310537942553528 1.13477338365612
4 G1 22 0 12 0
0

0101000
+136 0 -86 0 *
Ed
 1e-007 1 1 0
1  36 0 2.5 67.5
2  71 24 0 2.5 67.5
2  72 12 0 2.5 67.5
4 G1 24 0 12 0
0

0101000
+88 0 -86 0 *
Wi

0101100
+134 0 -87 0 +85 0 -84 0 *
Fa
0  1e-007 12 0

0101000
+83 0 *
Ed
 1e-007 1 1 0
1  37 0 4.71238898038469 6.28318530717959
2  73 16 0 4.71238898038469 6.28318530717959
2  74 13 0 4.71238898038469 6.28318530717959
4 G1 13 0 16 0
0

0101000
+131 0 -121 0 *
Ed
 1e-007 1 1 1
2  75 13 0 0 1.01893653209451
0

0101000
+131 0 -131 0 *
Wi

0101100
-81 0 +80 0 +130 0 -120 0 *
Fa
0  0 13 0

0101000
+79 0 *
Ed
 1e-007 1 1 0
1  38 0 4.71238898038469 6.28318530717959
2  76 20 0 4.71238898038469 6.28318530717959
2  77 14 0 4.71238898038469 6.28318530717959
4 G1 14 0 20 0
0

0101000
+126 0 -119 0 *
Ed
 1e-007 1 1 1
2  78 14 0 0 1.01893653209451
0

0101000
+126 0 -126 0 *
Wi

0101100
-77 0 +76 0 +125 0 -118 0 *
Fa
0  0 14 0

0101000
+75 0 *
Ve
1e-007
23.8106796116505 8.25793931118969 2.5
0 0

0101101
*
Ed
 1e-007 1 1 0
1  39 0 0.0310537942553528 1.13477338365612
2  79 16 0 0.0310537942553528 1.13477338365612
2  80 15 0 0.0310537942553528 1.13477338365612
4 G1 16 0 15 0
0

0101000
+121 0 -73 0 *
Ve
1e-007
23.8106796116505 8.25793931118969 67.5
0 0

0101101
*
Ed
 1e-007 1 1 0
1  40 0 0.0310537942553528 1.13477338365612
2  81 20 0 0.0310537942553528 1.13477338365612
2  82 15 0 0.0310537942553528 1.13477338365612
4 G1 20 0 15 0
0

0101000
+119 0 -71 0 *
Ed
 1e-007 1 1 0
1  41 0 2.5 67.5
2  83 25 0 2.5 67.5
2  84 15 0 2.5 67.5
4 G1 25 0 15 0
0

0101000
+73 0 -71 0 *
Wi

0101100
+117 0 -72 0 +70 0 -69 0 *
Fa
0  1e-007 15 0

0101000
+68 0 *
Ed
 1e-007 1 1 0
1  42 0 4.71238898038469 6.28318530717959
2  85 16 0 4.71238898038469 6.28318530717959
2  86 26 0 4.71238898038469 6.28318530717959
4 G1 26 0 16 0
0

0101000
+114 0 -73 0 *
Wi

0101100
+81 0 -113 0 +72 0 -66 0 *
Fa
0  0 16 0

0101000
+65 0 *
Ve
1e-007
25 0 2.5
0 0

0101101
*
Ed
 1e-007 1 1 0
1  43 0 0 1.5707963267949
2  87 19 0 0 1.5707963267949
2  88 17 0 0 1.5707963267949
4 G1 19 0 17 0
0

0101000
+63 0 -112 0 *
Ve
1e-007
25 6.12906191791319 2.5
0 0

0101101
*
Ed
 1e-007 1 1 0
1  44 0 -0 6.12906191791319
2  89 17 0 -0 6.12906191791319
2  90 27 0 -0 6.12906191791319
4 G1 17 0 27 0
0

0101000
+63 0 -61 0 *
Ed
 1e-007 1 1 0
1  45 0 4.71238898038469 6.28318530717959
2  91 17 0 4.71238898038469 6.28318530717959
2  92 26 0 4.71238898038469 6.28318530717959
4 G1 26 0 17 0
0

0101000
+114 0 -61 0 *
Wi

0101100
+62 0 -60 0 +111 0 +59 0 *
Fa
0  0 17 0

0101000
+58 0 *
Ed
 1e-007 1 1 0
1  46 0 4.71238898038469 6.28318530717959
2  93 18 0 4.71238898038469 6.28318530717959
2  94 28 0 4.71238898038469 6.28318530717959
4 G1 28 0 18 0
0

0101000
+110 0 -88 0 *
Wi

0101100
+104 0 -109 0 +87 0 -56 0 *
Fa
0  0 18 0

0101000
+55 0 *
Ve
1e-007
25 -6.12906191791319 2.5
0 0

0101101
*
Ed
 1e-007 1 1 0
1  47 0 4.71238898038469 6.28318530717959
2  95 19 0 4.71238898038469 6.28318530717959
2  96 28 0 4.71238898038469 6.28318530717959
4 G1 28 0 19 0
0

0101000
+110 0 -53 0 *
Ed
 1e-007 1 1 0
1  48 0 1.37093808208681 7.5
2  97 19 0 1.37093808208681 7.5
2  98 29 0 1.37093808208681 7.5
4 G1 19 0 29 0
0

0101000
+53 0 -63 0 *
Wi

0101100
-52 0 +108 0 -51 0 -62 0 *
Fa
0  0 19 0

0101000
+50 0 *
Ed
 1e-007 1 1 0
1  49 0 4.71238898038469 6.28318530717959
2  99 20 0 4.71238898038469 6.28318530717959
2  100 30 0 4.71238898038469 6.28318530717959
4 G1 30 0 20 0
0

0101000
+101 0 -71 0 *
Wi

0101100
+77 0 -100 0 +70 0 -48 0 *
Fa
0  0 20 0

0101000
+47 0 *
Ve
1e-007
25 0 67.5
0 0

0101101
*
Ed
 1e-007 1 1 0
1  50 0 0 1.5707963267949
2  101 23 0 0 1.5707963267949
2  102 21 0 0 1.5707963267949
4 G1 23 0 21 0
0

0101000
+45 0 -99 0 *
Ve
1e-007
25 6.12906191791319 67.5
0 0

0101101
*
Ed
 1e-007 1 1 0
1  51 0 -0 6.12906191791319
2  103 21 0 -0 6.12906191791319
2  104 27 0 -0 6.12906191791319
4 G1 21 0 27 0
0

0101000
+45 0 -43 0 *
Ed
 1e-007 1 1 0
1  52 0 4.71238898038469 6.28318530717959
2  105 21 0 4.71238898038469 6.28318530717959
2  106 30 0 4.71238898038469 6.28318530717959
4 G1 30 0 21 0
0

0101000
+101 0 -43 0 *
Wi

0101100
+44 0 -42 0 +98 0 +41 0 *
Fa
0  0 21 0

0101000
+40 0 *
Ed
 1e-007 1 1 0
1  53 0 4.71238898038469 6.28318530717959
2  107 22 0 4.71238898038469 6.28318530717959
2  108 31 0 4.71238898038469 6.28318530717959
4 G1 31 0 22 0
0

0101000
+97 0 -86 0 *
Wi

0101100
+91 0 -96 0 +85 0 -38 0 *
Fa
0  0 22 0

0101000
+37 0 *
Ve
1e-007
25 -6.12906191791319 67.5
0 0

0101101
*
Ed
 1e-007 1 1 0
1  54 0 4.71238898038469 6.28318530717959
2  109 23 0 4.71238898038469 6.28318530717959
2  110 31 0 4.71238898038469 6.28318530717959
4 G1 31 0 23 0
0

0101000
+97 0 -35 0 *
Ed
 1e-007 1 1 0
1  55 0 1.37093808208681 7.5
2  111 23 0 1.37093808208681 7.5
2  112 29 0 1.37093808208681 7.5
4 G1 23 0 29 0
0

0101000
+35 0 -45 0 *
Wi

0101100
-34 0 +95 0 -33 0 -44 0 *
Fa
0  0 23 0

0101000
+32 0 *
Ed
 1e-007 1 1 0
1  56 0 0 1.01893653209452
2  113 24 0 0 1.01893653209452
2  114 28 0 0 1.01893653209452
4 G1 28 0 24 0
0

0101000
+88 0 -53 0 *
Ed
 1e-007 1 1 0
1  57 0 0 1.01893653209452
2  115 24 0 0 1.01893653209452
2  116 31 0 0 1.01893653209452
4 G1 31 0 24 0
0

0101000
+86 0 -35 0 *
Ed
 1e-007 1 1 0
1  58 0 2.5 67.5
2  117 24 0 2.5 67.5
2  118 29 0 2.5 67.5
4 G1 24 0 29 0
0

0101000
+53 0 -35 0 *
Wi

0101100
-84 0 +30 0 -29 0 +28 0 *
Fa
0  0 24 0

0101000
+27 0 *
Ed
 1e-007 1 1 0
1  59 0 0 1.01893653209452
2  119 25 0 0 1.01893653209452
2  120 26 0 0 1.01893653209452
4 G1 26 0 25 0
0

0101000
+73 0 -61 0 *
Ed
 1e-007 1 1 0
1  60 0 0 1.01893653209452
2  121 25 0 0 1.01893653209452
2  122 30 0 0 1.01893653209452
4 G1 30 0 25 0
0

0101000
+71 0 -43 0 *
Ed
 1e-007 1 1 0
1  61 0 2.5 67.5
2  123 25 0 2.5 67.5
2  124 27 0 2.5 67.5
4 G1 25 0 27 0
0

0101000
+61 0 -43 0 *
Wi

0101100
-69 0 +25 0 -24 0 +23 0 *
Fa
0  0 25 0

0101000
+22 0 *
Ed
 1e-007 1 1 1
2  125 26 0 0 1.01893653209452
0

0101000
+114 0 -114 0 *
Wi

0101100
-66 0 +20 0 +59 0 -25 0 *
Fa
0  0 26 0

0101000
+19 0 *
Ed
 1e-007 1 1 0
1  62 0 2.5 67.5
4 C2 29 0 27 0
0

0101000
+63 0 -45 0 *
Wi

0101100
-17 0 +60 0 -42 0 +23 0 *
Fa
0  1e-007 27 0

0101000
+16 0 *
Ed
 1e-007 1 1 1
2  126 28 0 0 1.01893653209452
0

0101000
+110 0 -110 0 *
Wi

0101100
-56 0 +14 0 +52 0 -30 0 *
Fa
0  0 28 0

0101000
+13 0 *
Wi

0101100
-17 0 -51 0 +33 0 +28 0 *
Fa
0  1e-007 29 0

0101000
+11 0 *
Ed
 1e-007 1 1 1
2  127 30 0 0 1.01893653209452
0

0101000
+101 0 -101 0 *
Wi

0101100
-48 0 +9 0 +41 0 -24 0 *
Fa
0  0 30 0

0101000
+8 0 *
Ed
 1e-007 1 1 1
2  128 31 0 0 1.01893653209452
0

0101000
+97 0 -97 0 *
Wi

0101100
-38 0 +6 0 +34 0 -29 0 *
Fa
0  0 31 0

0101000
+5 0 *
Sh

0101100
-160 0 +153 0 +146 0 -139 0 +132 0 +127 0 -122 0 -115 0 -106 0 +102 0 
+93 1 -89 0 -82 0 +78 0 -74 0 +67 0 +64 0 +57 0 -54 0 +49 0 
-46 0 -39 0 +36 0 -31 0 +26 0 -21 0 -18 0 +15 0 +12 0 -10 0 
+7 0 -4 0 *
So

0100000
+3 0 *
Co

1100000
+2 0 *

+1 0 